HIERARCHY
ROOT Hips
{
	OFFSET 0.00000 0.00000 0.00000
	CHANNELS 6 Xposition Yposition Zposition Zrotation Yrotation Xrotation 
	JOINT LHipJoint
	{
		OFFSET 0 0 0
		CHANNELS 3 Zrotation Yrotation Xrotation
		JOINT LeftHip
		{
			OFFSET 1.53139 -1.83434 0.76626
			CHANNELS 3 Zrotation Yrotation Xrotation
			JOINT LeftKnee
			{
				OFFSET 2.56112 -7.03663 0.00000
				CHANNELS 3 Zrotation Yrotation Xrotation
				JOINT LeftAnkle
				{
					OFFSET 2.59983 -7.14299 0.00000
					CHANNELS 3 Zrotation Yrotation Xrotation
					JOINT LeftToe
					{
						OFFSET 0.13742 -0.37757 2.00054
						CHANNELS 3 Zrotation Yrotation Xrotation
						End Site
						{
							OFFSET 0.00000 -0.00000 1.02897
						}
					}
				}
			}
		}
	}
	JOINT RHipJoint
	{
		OFFSET 0 0 0
		CHANNELS 3 Zrotation Yrotation Xrotation
		JOINT RightHip
		{
			OFFSET -1.40122 -1.83435 0.76627
			CHANNELS 3 Zrotation Yrotation Xrotation
			JOINT RightKnee
			{
				OFFSET -2.54052 -6.98003 0.00000
				CHANNELS 3 Zrotation Yrotation Xrotation
				JOINT RightAnkle
				{
					OFFSET -2.63179 -7.23079 0.00000
					CHANNELS 3 Zrotation Yrotation Xrotation
					JOINT RightToe
					{
						OFFSET -0.24131 -0.66299 2.03908
						CHANNELS 3 Zrotation Yrotation Xrotation
						End Site
						{
							OFFSET -0.00000 -0.00000 1.07391
						}
					}
				}
			}
		}
	}
	JOINT lowerback
	{
		OFFSET 0 0 0
		CHANNELS 3 Zrotation Yrotation Xrotation
		JOINT Chest
		{
			OFFSET 0.01174 2.10302 -0.29778
			CHANNELS 3 Zrotation Yrotation Xrotation
			JOINT Chest2
			{
				OFFSET 0.00772 2.13227 -0.01247
				CHANNELS 3 Zrotation Yrotation Xrotation
				JOINT lowerneck
				{
					OFFSET 0 0 0
					CHANNELS 3 Zrotation Yrotation Xrotation
					JOINT Neck
					{
						OFFSET -0.09219 1.60848 0.31481
						CHANNELS 3 Zrotation Yrotation Xrotation
						JOINT Head
						{
							OFFSET 0.13974 1.65456 -0.31134
							CHANNELS 3 Zrotation Yrotation Xrotation
							End Site
							{
								OFFSET 0.04742 1.69515 -0.14578
							}
						}
					}
				}
				JOINT LeftCollar
				{
					OFFSET 0 0 0
					CHANNELS 3 Zrotation Yrotation Xrotation
					JOINT LeftShoulder
					{
						OFFSET 3.24909 1.02882 -0.23993
CHANNELS 3 Zrotation Xrotation Yrotation
						JOINT LeftElbow
						{
OFFSET 0 -5.329550 -0.000000
CHANNELS 3 Zrotation Xrotation Yrotation
							JOINT LeftWrist
							{
OFFSET 0 -3.692320 -0.000000
CHANNELS 3 Zrotation Xrotation Yrotation
								JOINT lhand
								{
									OFFSET 0 0 0
CHANNELS 3 Zrotation Xrotation Yrotation
									JOINT LFingers
									{
OFFSET 0 -0.536600 -0.000000
CHANNELS 3 Zrotation Xrotation Yrotation
										End Site
										{
OFFSET 0 -0.432620 -0.000000
										}
									}
								}
								JOINT LThumb
								{
OFFSET 0 0.000000 0.000000
CHANNELS 3 Zrotation Xrotation Yrotation
									End Site
									{
OFFSET 0 -0.439220 0.439220
									}
								}
							}
						}
					}
				}
				JOINT RightCollar
				{
					OFFSET 0 0 0
					CHANNELS 3 Zrotation Yrotation Xrotation
					JOINT RightShoulder
					{
						OFFSET -3.21387 0.93002 -0.34594
CHANNELS 3 Zrotation Xrotation Yrotation
						JOINT RightElbow
						{
OFFSET 0 -5.234310 0.000000
CHANNELS 3 Zrotation Xrotation Yrotation
							JOINT RightWrist
							{
OFFSET 0 -3.553010 -0.000000
CHANNELS 3 Zrotation Xrotation Yrotation
								JOINT rhand
								{
									OFFSET 0 0 0
CHANNELS 3 Zrotation Xrotation Yrotation
									JOINT RFingers
									{
OFFSET 0 -0.772520 -0.000000
CHANNELS 3 Zrotation Xrotation Yrotation
										End Site
										{
OFFSET 0 -0.622830 -0.000000
										}
									}
								}
								JOINT RThumb
								{
OFFSET 0 0.000000 0.000000
CHANNELS 3 Zrotation Xrotation Yrotation
									End Site
									{
OFFSET 0 -0.632340 0.632340
									}
								}
							}
						}
					}
				}
			}
		}
	}
}
MOTION
Frames: 9
Frame Time: 0.008333333333333333
1.501137 18.119816 1.039009 -3.881475 -48.552769 1.223640 0.000000 0.000000 0.000000 -17.069586 -4.501348 -19.880932 9.480009 17.106474 57.735091 -0.054682 -5.878988 -2.293859 0.250166 -3.216515 -8.882348 0.000000 0.000000 0.000000 27.941506 3.122617 -7.367751 -1.767754 -8.364650 23.827234 -0.300473 8.247485 -10.582082 -0.796970 -5.690264 15.890522 2.223250 1.106983 12.449259 1.783246 1.833380 1.503558 0.309260 0.854283 -5.389587 -10.339556 -4.564746 -20.975738 8.054428 -5.494025 25.993648 3.893232 -2.463266 12.661612 0.000000 0.000000 0.000000 3.066822 5.551271 -17.185095 18.910744 -29.307584 4.987079 15.248757 14.769909 -24.777308 0.000000 0.000000 0.000000 -7.125000 0.000000 0.000000 -15.195335 54.898070 3.758996 0.000000 0.000000 0.000000 -1.586702 3.796175 10.728551 -18.284717 -28.519870 -4.684539 -12.199425 7.312335 -9.280012 0.000000 0.000000 0.000000 7.125000 0.000000 0.000000 10.542848 20.560073 6.274330
1.447810 18.116048 1.087026 -3.872226 -48.490307 1.196919 0.000000 0.000000 0.000000 -17.035557 -4.865444 -20.283396 9.355428 17.030823 57.310874 -0.030245 -5.530365 -2.870977 0.228698 -3.077146 -8.493644 0.000000 0.000000 0.000000 27.961718 2.911650 -7.177852 -1.775861 -8.382749 23.882902 -0.331818 8.386454 -11.035646 -0.902710 -6.050591 16.932566 2.274750 1.114348 12.444977 1.741338 1.846341 1.534675 0.234579 0.859650 -5.351162 -10.377467 -4.590439 -20.986815 8.123685 -5.536675 25.981144 3.919096 -2.476398 12.667436 0.000000 0.000000 0.000000 3.083265 5.551214 -17.230086 18.941233 -29.345552 5.002038 15.523270 14.988526 -24.621324 0.000000 0.000000 0.000000 -7.125000 0.000000 0.000000 -14.839004 54.798610 3.631388 0.000000 0.000000 0.000000 -1.649907 3.684326 10.982453 -18.449151 -28.728210 -4.763216 -12.174075 7.092005 -9.217036 0.000000 0.000000 0.000000 7.125000 0.000000 0.000000 10.563745 20.624419 6.271589
1.393585 18.109159 1.135043 -3.914305 -48.442632 1.239049 0.000000 0.000000 0.000000 -16.969005 -5.177228 -20.671756 9.207297 16.938505 56.803019 -0.005894 -5.275296 -3.487542 0.233215 -3.107489 -8.578134 0.000000 0.000000 0.000000 28.017957 2.802314 -6.984791 -1.787174 -8.407942 23.960280 -0.368121 8.489182 -11.518314 -1.089396 -6.608197 18.568880 2.324412 1.116585 12.415778 1.726270 1.853831 1.543611 0.190285 0.862496 -5.323336 -10.389692 -4.601516 -20.959897 8.120885 -5.548084 25.954922 3.917394 -2.483247 12.653130 0.000000 0.000000 0.000000 3.102828 5.575390 -17.332560 18.966038 -29.376426 5.014219 15.614780 15.096367 -24.626206 0.000000 0.000000 0.000000 -7.125000 0.000000 0.000000 -14.748930 54.821167 3.616438 0.000000 0.000000 0.000000 -1.724052 3.601495 11.200071 -18.612901 -28.934414 -4.842277 -12.179111 6.962364 -9.177822 0.000000 0.000000 0.000000 7.125000 0.000000 0.000000 10.561948 20.663550 6.261028
1.339059 18.101223 1.183060 -3.973627 -48.399925 1.304309 0.000000 0.000000 0.000000 -16.891527 -5.471440 -21.055378 9.051256 16.840586 56.267067 0.018429 -5.051654 -4.117358 0.246461 -3.194845 -8.821588 0.000000 0.000000 0.000000 28.086300 2.727120 -6.790668 -1.799564 -8.435519 24.044952 -0.406089 8.579735 -12.010760 -1.303275 -7.232076 20.404832 2.373457 1.117098 12.378210 1.720218 1.859483 1.545096 0.156200 0.864494 -5.299071 -10.393289 -4.607682 -20.920216 8.093879 -5.548997 25.924090 3.906432 -2.487986 12.632062 0.000000 0.000000 0.000000 3.123440 5.607706 -17.454344 18.988933 -29.404917 5.025467 15.644812 15.166993 -24.685128 0.000000 0.000000 0.000000 -7.125000 0.000000 0.000000 -14.748302 54.884714 3.639333 0.000000 0.000000 0.000000 -1.801872 3.528414 11.405499 -18.776422 -29.139899 -4.921468 -12.194355 6.863190 -9.146591 0.000000 0.000000 0.000000 7.125000 0.000000 0.000000 10.552528 20.694210 6.247839
1.284989 18.090554 1.230678 -4.021107 -48.400483 1.345659 0.000000 0.000000 0.000000 -16.792416 -5.761609 -21.357536 8.862254 16.717050 55.610598 0.037799 -4.920293 -4.595291 0.207618 -2.924008 -8.067944 0.000000 0.000000 0.000000 28.150146 2.745800 -6.571951 -1.816678 -8.473230 24.160992 -0.417415 8.494095 -12.121787 -1.135677 -6.753198 18.991890 2.365459 1.124785 12.406963 1.728512 1.871113 1.519938 0.166632 0.869965 -5.341981 -10.374115 -4.582424 -20.900289 8.062489 -5.512964 25.938289 3.897690 -2.474850 12.627787 0.000000 0.000000 0.000000 3.177468 5.688240 -17.655884 19.030501 -29.456520 5.045880 15.643989 15.012241 -24.774848 0.000000 0.000000 0.000000 -7.125000 0.000000 0.000000 -14.794810 54.972342 3.683064 0.000000 0.000000 0.000000 -1.932466 3.522166 11.706795 -18.953150 -29.359958 -5.008060 -12.250417 6.731225 -9.151851 0.000000 0.000000 0.000000 7.125000 0.000000 0.000000 10.512309 20.686558 6.225029
1.231088 18.079681 1.278884 -4.071554 -48.406385 1.382479 0.000000 0.000000 0.000000 -16.691895 -6.053365 -21.639038 8.665554 16.586750 54.924747 0.056495 -4.796677 -5.050018 0.160194 -2.539541 -7.001193 0.000000 0.000000 0.000000 28.213599 2.751237 -6.346221 -1.832741 -8.508571 24.269803 -0.428242 8.414838 -12.228512 -0.957299 -6.213423 17.410046 2.368836 1.137752 12.438588 1.734800 1.891105 1.498320 0.167112 0.879289 -5.382199 -10.364929 -4.563875 -20.875610 8.042937 -5.486513 25.942804 3.893372 -2.465405 12.620533 0.000000 0.000000 0.000000 3.223362 5.764484 -17.835698 19.071071 -29.506859 5.065816 15.659763 14.875381 -24.810879 0.000000 0.000000 0.000000 -7.125000 0.000000 0.000000 -14.797283 55.010608 3.697645 0.000000 0.000000 0.000000 -2.066958 3.515482 12.017473 -19.133689 -29.584183 -5.096805 -12.277220 6.591900 -9.143083 0.000000 0.000000 0.000000 7.125000 0.000000 0.000000 10.493595 20.694247 6.211684
1.177704 18.068205 1.328900 -4.131219 -48.428310 1.405603 0.000000 0.000000 0.000000 -16.587240 -6.350032 -21.857826 8.445509 16.435905 54.149737 0.073167 -4.696018 -5.434839 0.086884 -1.809294 -4.981738 0.000000 0.000000 0.000000 28.275890 2.715153 -6.099170 -1.845531 -8.536548 24.356131 -0.437777 8.356772 -12.325459 -0.749244 -5.496536 15.338691 2.407661 1.166870 12.478441 1.734800 1.936724 1.487814 0.136623 0.900414 -5.413544 -10.386625 -4.566216 -20.836157 8.059780 -5.489825 25.917168 3.902621 -2.467460 12.603976 0.000000 0.000000 0.000000 3.243974 5.827117 -17.948061 19.108412 -29.553106 5.084200 15.726793 14.795505 -24.681730 0.000000 0.000000 0.000000 -7.125000 0.000000 0.000000 -14.664080 54.897045 3.622508 0.000000 0.000000 0.000000 -2.212950 3.506861 12.356104 -19.325814 -29.821071 -5.192097 -12.213787 6.430263 -9.090898 0.000000 0.000000 0.000000 7.125000 0.000000 0.000000 10.541213 20.749401 6.227500
1.123192 18.059353 1.378746 -4.206852 -48.462197 1.452482 0.000000 0.000000 0.000000 -16.485603 -6.585785 -22.091850 8.209383 16.269175 53.310287 0.090149 -4.584666 -5.811365 0.046443 -1.388297 -3.818003 0.000000 0.000000 0.000000 28.356605 2.684599 -5.841878 -1.852141 -8.551010 24.400731 -0.456368 8.293403 -12.525218 -0.617902 -5.027704 13.988252 2.465388 1.205130 12.486271 1.728142 1.994982 1.489751 0.087287 0.927718 -5.412782 -10.400986 -4.578516 -20.807595 8.076172 -5.508485 25.889642 3.907610 -2.475271 12.590380 0.000000 0.000000 0.000000 3.275927 5.873923 -18.079638 19.151620 -29.606576 5.105547 15.702975 14.716137 -24.595973 0.000000 0.000000 0.000000 -7.125000 0.000000 0.000000 -14.644663 54.808509 3.585375 0.000000 0.000000 0.000000 -2.339898 3.467064 12.691180 -19.490939 -30.023905 -5.274354 -12.150580 6.248877 -9.062807 0.000000 0.000000 0.000000 7.125000 0.000000 0.000000 10.587561 20.780291 6.248365
1.067524 18.053187 1.428419 -4.298833 -48.508330 1.523680 0.000000 0.000000 0.000000 -16.387057 -6.759183 -22.341470 7.956794 16.086185 52.404872 0.107449 -4.462368 -6.179401 0.039648 -1.283870 -3.530243 0.000000 0.000000 0.000000 28.456179 2.659705 -5.574102 -1.852427 -8.551638 24.402615 -0.484231 8.224603 -12.830220 -0.565089 -4.812797 13.375792 2.542467 1.252748 12.461320 1.714667 2.066180 1.504424 0.018659 0.961347 -5.379153 -10.407837 -4.601012 -20.790181 8.092101 -5.542856 25.860181 3.908238 -2.488974 12.579818 0.000000 0.000000 0.000000 3.319491 5.904526 -18.230883 19.200836 -29.667439 5.129927 15.586158 14.637288 -24.554636 0.000000 0.000000 0.000000 -7.125000 0.000000 0.000000 -14.741725 54.745590 3.587145 0.000000 0.000000 0.000000 -2.447351 3.395352 13.022618 -19.628424 -30.191879 -5.343268 -12.087604 6.047274 -9.059381 0.000000 0.000000 0.000000 7.125000 0.000000 0.000000 10.632609 20.786343 6.274401
